<svg clip-rule="evenodd" fill-rule="evenodd" stroke-linejoin="round" stroke-miterlimit="2" viewBox="0 0 130 130" xmlns="http://www.w3.org/2000/svg"><g fill="#ffffff" transform="matrix(2.85717 0 0 2.85717 0 2)"><path d="m18.638 0-14.547 3.81-4.009 14.629 5.014 5.148-5.095 5.063 3.773 14.693 14.484 4.047 5.096-5.064 5.014 5.147 14.547-3.81 4.008-14.63-5.013-5.146 5.095-5.063-3.773-14.694-14.486-4.047-5.094 5.063zm-8.927 6.624 7.663-2.008 3.351 3.44-4.887 4.856zm16.822 1.478 3.405-3.383 7.63 2.132-6.227 6.187zm-21.86 9.136 2.111-7.705 6.125 6.288-4.886 4.856-3.35-3.44zm29.547-1.243 6.227-6.189 1.986 7.74-3.404 3.384zm-15.502-.127 4.887-4.856 4.807 4.936-4.886 4.856zm-7.814 7.765 4.886-4.856 4.81 4.936-4.888 4.856zm15.503.127 4.886-4.856 4.808 4.936-4.887 4.856zm-21.836 6.167 3.406-3.385 4.807 4.937-6.225 6.186zm14.021 1.598 4.887-4.856 4.808 4.936-4.886 4.856zm15.502.128 4.887-4.856 3.351 3.439-2.11 7.705zm-24.656 8.97 6.226-6.189 4.81 4.936-3.406 3.385-7.63-2.133zm16.843-1.206 4.886-4.856 6.126 6.289-7.662 2.007z"/></g></svg>